<?xml version="1.0" encoding="UTF-8"?><svg id="a" xmlns="http://www.w3.org/2000/svg" width="211" height="316" viewBox="0 0 211 316"><path d="m63.39,313.59v-185.3c0-1.27,1.03-2.29,2.29-2.29h139.66c1.27,0,2.29,1.03,2.29,2.29v34.35c0,1.27-1.03,2.29-2.29,2.29h-91.07c-1.27,0-2.29,1.03-2.29,2.29v28.93c0,1.27,1.03,2.29,2.29,2.29h82.82c1.27,0,2.29,1.03,2.29,2.29v33.45c0,1.27-1.03,2.29-2.29,2.29h-82.82c-1.27,0-2.29,1.03-2.29,2.29v36.02c0,1.27,1.03,2.29,2.29,2.29h94.16c1.27,0,2.29,1.03,2.29,2.29v34.22c0,1.27-1.03,2.29-2.29,2.29H65.68c-1.27,0-2.29-1.03-2.29-2.29Z" fill="#fff" stroke-width="0"/><path d="m10.39,186.73V3.14c0-1.74,1.41-3.14,3.14-3.14h83.74c22,0,38.76,5.09,50.27,15.28,11.52,10.18,17.27,24.9,17.27,44.15,0,20.2-5.67,35.69-17.02,46.47-11.34,10.79-27.67,16.18-48.98,16.18h-34.85c-1.31,0-2.61.47-3.53,1.41-1.25,1.26-1.19,2.21-1.19,4,0,20.8,0,41.6,0,62.4H13.53c-1.74,0-3.14-1.41-3.14-3.14Zm48.86-102.95h32.23c8.77,0,15.23-1.87,19.4-5.61,4.17-3.74,6.25-9.52,6.25-17.34s-2.17-13.21-6.51-16.95c-4.34-3.74-10.89-5.61-19.66-5.61h-31.71v45.5Z" fill="#fff" stroke-width="0"/><path d="m21.44,239.08c.15,4.12,4.24,5.86,4.24,5.86l2.24,8.98,13.69-5.53h0s4-6.7,4-6.7c1.22-2.04,1.24-4.59.06-6.65l-1.63-2.86c-.41-.72-1.35-.94-2.04-.49l-5.26,3.47-2.43-.52c-.65-.14-1.33,0-1.88.37l-5.15,3.53-5.83.54Zm34.77,6.49c-.67.27-1.31.63-1.88,1.07l-7.33,5.61,5.44,5.62,5.92-4.84,3.19-1.04c1.12-.36,1.88-1.38,1.91-2.56l.14-4.93-5.27.55c-.73.08-1.43.25-2.11.52Zm-28.13,12.38s-4.99,14.19-12.09,18.77c0,0-7.44,2.9-12.69-3.4-.83-1-2.19-1.23-3.31-.3,0,0,.11,2.89,2.4,5.65,3.76,4.51,12.42,5.73,12.42,5.73,2.49,6.28,7.78,8.52,7.78,8.52l3.05,5.11-1.59,8.27.14,3.03c.09,1.98,1.74,3.53,3.72,3.5l4.99-.08-.11-6.99,2.91-9.07c.26-.8.33-1.65.22-2.48l-1.4-10.03,11-13.4,7.41.56c1.08.08,2.17-.16,3.11-.7l7.07-4,2.73.2c1.58.11,3.05-.81,3.62-2.29l1.66-4.27-5.33-1.32c-.85-.21-1.74-.15-2.56.18l-7.73,3.12-6.2-1.83-4.88-7.12-16.35,4.66Zm-13.94,31.65l-4.14,11,.02,3.87c.01,2.03,1.52,3.73,3.53,3.99l4.27.55-.11-6.76,1.88-5.02-5.46-7.64Z" fill="#fff" stroke-width="0"/><path d="m198.76,66.08c-1,0-1.2.5-1.2,1.16v8.7c0,1.38,0,2.47-2.47,2.47-3.53,0-4.95,1.51-4.95,3.71,0,1.01.77,3.71,4.95,3.71,4.65,0,4.95-3.28,4.95-4.95v-8.62c0-.86.08-1.28.58-1.28,2.29,0,3.2,1.24,5.65,1.24,0,0,1.2-.02,1.2-1.2v-2.55c0-.95-.44-1.16-1.24-1.16-4.43,0-3.31-1.24-7.46-1.24Zm-22.04,21c-6.43,0-11.14,4.94-11.14,11.14s1.32,23.14-19.95,19.57c4.05,3.4,12.06,6.34,17.9,6.5-.15.14-.35.31-.35.31-.47.53-.42,1.35.12,1.82.53.47,1.35.42,1.82-.12,0,0,1.78-2.05,5.22-2.05s5.22,2.05,5.22,2.05c.47.53,1.29.58,1.82.12s.58-1.29.12-1.82c0,0-1.33-1.39-3.67-2.24,7.87-3.35,13.49-11.07,13.88-23.01,2.62-1.13,4.08-2.05,5.22-4.49-1.62-.12-2.4-.27-2.4-.27,0,0,2.44-2.12,2.44-4.95-1.79,1.51-5.06,2.09-6.92,2.28-1.9-3-5.24-4.83-9.32-4.83Zm3.29,5.84c1.02,0,1.86.83,1.86,1.86s-.83,1.86-1.86,1.86-1.86-.83-1.86-1.86.83-1.86,1.86-1.86Z" fill="#fff" stroke-width="0"/></svg>